<?xml version="1.0" encoding="UTF-8"?>
<svg id="Layer_1" data-name="Layer 1" xmlns="http://www.w3.org/2000/svg" viewBox="0 0 100 100">
  <defs>
    <style>
      .cls-1 {
        fill: #0073ff;
      }

      .cls-1, .cls-2, .cls-3, .cls-4 {
        stroke-width: 0px;
      }

      .cls-2 {
        fill: #fc1773;
      }

      .cls-3, .cls-4 {
        fill: #fff;
      }

      .cls-4 {
        fill-rule: evenodd;
      }
    </style>
  </defs>
  <circle class="cls-1" cx="50" cy="50" r="50"/>
  <circle class="cls-2" cx="50" cy="50" r="50"/>
  <g>
    <g>
      <path class="cls-3" d="M61.25,64.83c-1.49-.07-5.52.73-4.65,4.34.86,3.62-.36,4.41-.89,4.63-.53.21-3.28.97-3.16,1.98.11,1.01-.17,3.96-.17,3.96,0,0-1.21.15-.87,1.18.34,1.04,1.94.68,2.3-.38.37-1.05.63-3.78.63-3.78,0,0,4.1.46,6.19-1.52,2.09-1.98,2.65-4.19,3-5.67.35-1.48-.55-4.66-2.39-4.75Z"/>
      <path class="cls-3" d="M61.13,72.42c2.08-1.26,3.85-.44,4.67,0,.82.44,4.23,2.65,7.58,2.2,3.34-.44,7.32-1.52,7.44-3.04.13-1.51,2.65-4.92-5.94-5.68-3.49-.3-7.64-1.76-8.77-1.95-1.14-.19-7.57-1.82-9.21,3.29-1.64,5.11,4.23,5.17,4.23,5.17Z"/>
      <path class="cls-3" d="M59.67,64.85c-1.26,0-4.04,1.52-6.63,1.39-2.59-.12-4.8-.82-5.49-1.76-.69-.95-1.7,2.84,2.59,3.97,4.29,1.13,7.19-.32,8.01-.89.82-.57,1.51-2.72,1.51-2.72Z"/>
      <path class="cls-3" d="M60.12,71.98c1.52,1.83,1.71,2.84,1.71,4.04,0,1.2-.82,2.53-.38,2.9.44.38,2.59,2.46,2.78,2.59.19.13,1.89.25,2.52.25s.76-1.07-.06-1.26c-.82-.19-1.14,0-1.14,0l-1.89-1.95s.31-1.51,1.39-2.15,2.4-2.46,1.13-5.05c-1.26-2.59-6.06.64-6.06.64Z"/>
      <path class="cls-3" d="M75.9,73.35c-.88,1.39-2.58,3.28-3.4,4.29-.82,1.01-1.13,1.52-1.01,2.71.05.49.1.92.15,1.25.06.45.42.79.87.83.64.05,1.51.12,1.89.12.63,0,.44-1.39,0-1.58-.44-.19-.76-.5-.76-.5l1.26-1.71s2.52-1.71,3.66-2.53,4.16-3.6,3.78-5.81c-.38-2.21-4.11-4.86-5.81-4.1-1.7.76-.63,7.01-.63,7.01Z"/>
      <path class="cls-3" d="M77.72,71.78c.44.89.3,3.16.51,4.03s1.05,1.43,1.86,2.04c.81.61,1.87,1.5,1.75,1.88-.13.38-.56.84.2,1.41.76.57,2.55-.13,2.22-1.57-.33-1.44-1.48-2.23-2.4-3-.92-.77.64-5.13-.47-5.97-1.11-.84-3.67,1.18-3.67,1.18Z"/>
      <path class="cls-3" d="M77.34,66.41c1.02-1.29,2.52-2.08,3.15-3.03.63-.95,1.96-1.39,4.23-1.01,2.27.38,2.01,1.71,2.28,2.28.28.58.86.82,2.31.99,1.14.13,1.41.33,1.41.58s.11,2.9-2.66,2.83c-3.16-.08-4.6,1.14-5.42,2.03s-6.5-3.15-5.31-4.67Z"/>
    </g>
    <path class="cls-3" d="M47.94,38.6c-2.39.12-5.71.07-5.71.07,0,0-.19,2.69.05,3.58.24.89,6.12-.48,7.07-.52.94-.05.82-3.23-1.41-3.12Z"/>
    <path class="cls-3" d="M47.36,47.56c-.28,0-.62-.11-.96-.48-.14-.15-.13-.39.02-.53.15-.14.39-.13.53.02.24.26.41.25.53.21.23-.07.87-.46,1.73-2.51.54-1.28.88-2.5.91-2.75.03-.21.22-.35.43-.32.21.03.35.22.32.43-.06.4-1.39,5.32-3.17,5.87-.1.03-.22.05-.35.05Z"/>
    <path class="cls-4" d="M34.08,14.09c-.29.99-.47,2.34-.68,2.92-.21.58,1.04.67,2.41.95,1.37.28,2.55,1.35,2.52.8-.01-.2.03-.7.12-.97.1-.28.24-.33.32-.55.29-.89.55-1.45.55-1.45,0,0-4.25-5.03-5.24-1.69Z"/>
    <path class="cls-4" d="M31.83,18.98c.02-.62,2.32-2.79,2.32-2.79l3.92,1.97s.45,1.19,1.26,2.24c.41.53.29,1.14.3,1.75.02,1.68-7.79-3.17-7.79-3.17Z"/>
    <path class="cls-4" d="M32.89,62.54c-2.1,1.83-4.05,4.21-4.93,6.07-.88,1.86-4.11,8.06-4.98,9.35-1.16,1.72-2.64,4.37-1.92,5.01,1.62,1.43,3.33-1.43,5.05-3.07,4.73-4.5,11.7-14.79,11.7-14.79,0,0-2.36-4.82-4.93-2.58Z"/>
    <path class="cls-4" d="M21.75,79.98c-.2-.12-.41-.03-.79.26-.36.28-.89.69-1.38,1.28-.79.96-.71,1.66-.12,2.19.6.53,1.83,1.22,2.43,1.9.73.84,1.51,2.09,3.24,2.2,1.92.13,3.19.09,3.19-.26,0-.73-.13-.85-.91-1.3-1.5-.88-1.62-1.6-1.97-2.17-.55-.91-.75-1.37-.78-1.71-.02-.26-.01-.6-.14-.72-.96.11-2.17.16-2.78-1.68Z"/>
    <path class="cls-4" d="M40.38,65.21c.15,2.65.86,5.58,1.82,7.44.97,1.85,2.67,8.68,3.08,10.12.53,1.85.13,2.13,1.15,2.24.45.05,1.65-.26,2.24-.61.87-.51.88-1.17.42-2.51-2.02-5.94-3.37-18.25-3.37-18.25,0,0-5.53-1.66-5.35,1.58Z"/>
    <path class="cls-4" d="M37.12,55.9c.73,3.59,5.54,23.99,6.13,27,4.29-.53,7.04-1.31,7.04-1.31,0,0-4.14-22.67-4.36-24.92s-2.12-13-2.12-13c0,0-5.09-4.14-6.82-2.12-1.73,2.02.13,14.35.13,14.35Z"/>
    <path class="cls-4" d="M32.04,43.97c-1.82,5.74.32,16.72-.67,18.59-.44,1.78-10.74,15.39-10.74,15.39l5.48,4.67s13.41-17.54,13.85-19.41c.44-1.87,1.98-16.41,1.67-18.81-.31-2.4-8.29-4.51-9.58-.43Z"/>
    <path class="cls-4" d="M29.7,30.29c.06-1.99-1.21-7.83-.51-9.47.7-1.64,1.81-3,3.62-3.28.56.45,1.43,1.06,3.26,1.8,1.48.6,2.49,1.03,3.24,1.05.35.39.64.81.87,1.27,1.31,2.69,1.48,3.46,1.76,9.92.13,3.08,2.13,7,2,12.85-1.97.52-11.19.37-12.21.25-.04-5.22-2.03-14.39-2.03-14.39Z"/>
    <path class="cls-4" d="M40.47,16.65c.57-.1,1.41-1.73,1.48-2.61.53-.28.78-.25.62-.63-.16-.38-.63-.89-.76-1.49s-.05-2.51-.74-2.95c-.69-.44-5.68-3.52-7.92,3.21-1.28,3.84,6.74,4.56,7.31,4.47Z"/>
    <path class="cls-4" d="M36.95,12.25c.15,1.36.28,3.09.98,3.84s1.65,1.65,2.51,1.56c1.02-.11,1.24-1.27,1.26-1.47.03-.35,0-.8.04-1.21.2-.53.21-.94.21-.94,0,0-1.42.5-2.33.16-.22-.08-.8-.37-1.46-1.02-.2-.2-.37-1.13-.34-1.65.04-.75-.87.71-.87.71Z"/>
    <path class="cls-4" d="M41.35,9.28c.06-.06.17-.15.21-.35.13-.6-.78-1.84-2.11-2.39-2.84-1.17-5.73-1.21-6.89,1.15-.99,2.02-.31,3.99.03,5.76.36,1.88,3.27,1.12,3.28,1.06.09-.41.06-.82-.11-1.21-.2-.44-.38-1.12.11-1.42.76-.48,1.09.37,1.09.37,0,0,1.13-.34,1.35-1.16.19-.71.3-1.2,1.13-1.5.7-.26,1.33-.29,1.92-.3Z"/>
    <path class="cls-4" d="M45.48,83.82c-.15.26-.13,1.59.41,2.68s1.2,1.32,2.02,1.12c.81-.19,3.19-1.19,4.1-1.47.9-.27,2.08-.71,3.18-1.13,1.37-.53,2.1-1.14,1.95-1.44-.62-1.25-2.18-.78-4.48-.87-.7-.03-1.53.01-2.15-.11-.33-.26-1.01-.39-1.27-.35-.25,1.08-1.71,2.04-3.76,1.56Z"/>
    <path class="cls-3" d="M27.62,27.47c-.37.93-.5,1.45-1.19,3.78-.49,1.65-1.58,4.8-1.54,5.74.09,2.1,4.76,2.7,4.9,1.03.11-1.32,1.43-4.26,2.26-6.33.62-1.56.83-2.53.83-2.53l-5.26-1.69Z"/>
    <path class="cls-4" d="M26.43,28.72s1.95-6.43,2.93-8.23c.81-1.48,1.73-2.15,4.05-1.47,2.32.68,2.58,4.12,2.09,5.79-.49,1.67-2.72,6.03-2.72,6.03l-6.36-2.12Z"/>
    <path class="cls-4" d="M24.94,36.38c-.3,1.12-.06,1.79,1.18,3.68.78,1.18,2.51,3.6,3.2,4.32,1.31,1.37,1.74,2.1,2.15,2.62.41.68,1.83,1.71,2.96,2.27,1.31-1.31,1.62-3.33,1.62-3.33,0,0,0-.32-.48-.55-.48-.23-1.43-.59-1.92-1.01-2.02-3.34-3.85-6.37-3.85-6.37,0,0-4.28-3.81-4.86-1.64Z"/>
    <path class="cls-3" d="M48.88,40.22c.06.8.14,1.98.71,2.45.57.47,2.21-.33,2.78-.57.57-.24.99-.71.71-1.65-.28-.94-4.29-1.46-4.19-.23Z"/>
    <path class="cls-3" d="M46.67,47.2c-.1,0-.2-.04-.28-.12-.36-.39-.52-.85-.48-1.38.13-1.86,2.85-4.09,4.47-5.43.22-.18.42-.34.58-.48.16-.13.39-.12.53.04.13.16.11.39-.04.53-.17.14-.37.31-.59.49-1.43,1.18-4.09,3.36-4.2,4.9-.02.32.07.58.29.82.14.15.13.39-.02.53-.07.07-.16.1-.25.1Z"/>
    <path class="cls-3" d="M76.99,66.74s0,0,0,0c-4.03-.2-7.83-1.65-11.31-4.32-3.68-2.82-6.79-6.86-9.27-12.02-1.38-2.88-3.54-8.89-4-10.22-.05-.13-.03-.32.02-.42.06-.1.14-.08.19.06.46,1.32,2.6,7.29,3.98,10.15,2.44,5.09,5.53,9.09,9.17,11.89,3.45,2.65,7.23,4.09,11.23,4.29.07,0,.13.14.13.31,0,.16-.06.29-.13.29Z"/>
    <path class="cls-3" d="M47.94,38.6c1.37,0,2.63-.79,3.38-.55.75.23,1.6,1.08,1.93,1.55.33.47.52,1.27-.09,1.18-.61-.09-1.08-.56-1.08-.56,0,0-1.98.24-3.2,0-1.22-.23-.93-1.62-.93-1.62Z"/>
    <path class="cls-3" d="M82.21,71.75c-2.89-.72-5.3-3.84-5.37-5.63-.01-.28.87-.41.95-.24.03.06.04.12.05.19.06,1.32,2.31,4.29,4.89,4.76.03,0,.07.02.1.03.22.09-.5.91-.62.88Z"/>
  </g>
</svg>