<svg id="Capa_1" data-name="Capa 1" xmlns="http://www.w3.org/2000/svg" viewBox="0 0 472.94 750.14"><defs><style>.cls-1{fill:#00ffb7;}.cls-2{fill:#fff;}</style></defs><circle class="cls-1" cx="238.19" cy="238.37" r="205.71"/><path class="cls-2" d="M453.14,234.21a54.32,54.32,0,0,0-54.31,54.3c0,30.55,23.76,54.31,54.31,54.31a54.31,54.31,0,1,0,0-108.61Zm0,98.43c-24.89,0-44.13-19.23-44.13-44.13s19.24-44.12,44.13-44.12a44.17,44.17,0,0,1,44.12,44.12C497.26,313.41,478,332.64,453.14,332.64Z" transform="translate(-138.6)"/><path class="cls-2" d="M295.87,234.21a54.32,54.32,0,0,0-54.31,54.3c0,30.55,23.76,54.31,54.31,54.31a54.31,54.31,0,1,0,0-108.61Zm0,98.43c-24.89,0-44.13-19.23-44.13-44.13s19.24-44.12,44.13-44.12A44.17,44.17,0,0,1,340,288.51C340,313.41,320.76,332.64,295.87,332.64Z" transform="translate(-138.6)"/><path class="cls-2" d="M392,149.35a26,26,0,1,0-26-26A25.6,25.6,0,0,0,392,149.35Z" transform="translate(-138.6)"/><polygon class="cls-2" points="230.81 267.02 230.81 311.14 255.7 311.14 255.7 250.05 212.71 217.23 235.34 185.55 298.7 218.37 307.75 200.26 246.65 168.58 253.44 159.53 226.28 140.3 169.71 220.63 192.34 237.6 230.81 267.02"/><path class="cls-2" d="M397.7,313.41H373.94a7.73,7.73,0,0,0-7.92,7.92c0,4.52,3.39,6.79,7.92,6.79H397.7a6.52,6.52,0,0,0,6.78-6.79C404.48,316.8,402.22,313.41,397.7,313.41Z" transform="translate(-138.6)"/><path class="cls-2" d="M375.07,0C245,0,138.6,106.35,138.6,236.47S375.07,750.14,375.07,750.14s236.47-383.56,236.47-514.8C611.54,105.22,505.18,0,375.07,0Zm0,420.89A192.34,192.34,0,1,1,567.41,228.55C566.28,334.9,480.29,420.89,375.07,420.89Z" transform="translate(-138.6)"/></svg>