{
  "accessors": [
    {
      "bufferView": 2,
      "componentType": 5126,
      "count": 987,
      "max": [
        6.0500001907348633,
        4.0451211929321289,
        5.1531257629394531
      ],
      "min": [
        -5.3691630363464355,
        -3.8949828147888184,
        -5.1532316207885742
      ],
      "type": "VEC3"
    },
    {
      "bufferView": 2,
      "byteOffset": 11844,
      "componentType": 5126,
      "count": 987,
      "max": [
        0.99999988079071045,
        1,
        0.89491111040115356
      ],
      "min": [
        -1,
        -1,
        -0.99465948343276978
      ],
      "type": "VEC3"
    },
    {
      "bufferView": 3,
      "componentType": 5126,
      "count": 987,
      "max": [
        0.99978208541870117,
        0.99998301267623901,
        0.99989312887191772,
        1
      ],
      "min": [
        -0.99989813566207886,
        -0.99999994039535522,
        -0.96747386455535889,
        -1
      ],
      "type": "VEC4"
    },
    {
      "bufferView": 1,
      "componentType": 5126,
      "count": 987,
      "max": [
        0.98803597688674927,
        0.89132893085479736
      ],
      "min": [
        0.50901639461517334,
        0.19609440863132477
      ],
      "type": "VEC2"
    },
    {
      "bufferView": 0,
      "componentType": 5125,
      "count": 4119,
      "max": [
        986
      ],
      "min": [
        0
      ],
      "type": "SCALAR"
    },
    {
      "bufferView": 2,
      "byteOffset": 23688,
      "componentType": 5126,
      "count": 751,
      "max": [
        6.0932755470275879,
        4.0954427719116211,
        5.2048931121826172
      ],
      "min": [
        -5.4094748497009277,
        -3.9458565711975098,
        -5.2099432945251465
      ],
      "type": "VEC3"
    },
    {
      "bufferView": 2,
      "byteOffset": 32700,
      "componentType": 5126,
      "count": 751,
      "max": [
        1,
        1,
        0.99465948343276978
      ],
      "min": [
        -0.99999988079071045,
        -1,
        -0.89461249113082886
      ],
      "type": "VEC3"
    },
    {
      "bufferView": 3,
      "byteOffset": 15792,
      "componentType": 5126,
      "count": 751,
      "max": [
        0.99978208541870117,
        0.99998301267623901,
        0.99989312887191772,
        1
      ],
      "min": [
        -0.99989813566207886,
        -0.99999964237213135,
        -0.96747386455535889,
        -1
      ],
      "type": "VEC4"
    },
    {
      "bufferView": 0,
      "byteOffset": 16476,
      "componentType": 5125,
      "count": 3387,
      "max": [
        750
      ],
      "min": [
        0
      ],
      "type": "SCALAR"
    }
  ],
  "asset": {
    "extras": {
      "author": "CodingDuff (https://sketchfab.com/lois.aubree)",
      "license": "CC-BY-4.0 (http://creativecommons.org/licenses/by/4.0/)",
      "source": "https://sketchfab.com/models/8033038875de41c69ca281f92ab94aa6",
      "title": "Cheese Toon"
    },
    "generator": "Sketchfab-3.18.6",
    "version": "2.0"
  },
  "bufferViews": [
    {
      "buffer": 0,
      "byteLength": 30024,
      "byteOffset": 0,
      "name": "floatBufferViews",
      "target": 34963
    },
    {
      "buffer": 0,
      "byteLength": 7896,
      "byteOffset": 30024,
      "byteStride": 8,
      "name": "floatBufferViews",
      "target": 34962
    },
    {
      "buffer": 0,
      "byteLength": 41712,
      "byteOffset": 37920,
      "byteStride": 12,
      "name": "floatBufferViews",
      "target": 34962
    },
    {
      "buffer": 0,
      "byteLength": 27808,
      "byteOffset": 79632,
      "byteStride": 16,
      "name": "floatBufferViews",
      "target": 34962
    }
  ],
  "buffers": [
    {
      "byteLength": 107440,
      "uri": "scene.bin"
    }
  ],
  "images": [
    {
      "uri": "textures/Cheese_baseColor.png"
    }
  ],
  "materials": [
    {
      "doubleSided": true,
      "name": "Cheese",
      "pbrMetallicRoughness": {
        "baseColorFactor": [
          1,
          1,
          1,
          1
        ],
        "baseColorTexture": {
          "index": 0,
          "texCoord": 0
        },
        "metallicFactor": 0,
        "roughnessFactor": 0.90072408540000004
      }
    },
    {
      "doubleSided": false,
      "name": "Cull",
      "pbrMetallicRoughness": {
        "baseColorFactor": [
          0,
          0,
          0,
          1
        ],
        "metallicFactor": 0,
        "roughnessFactor": 0.59999999999999998
      }
    }
  ],
  "meshes": [
    {
      "name": "Cheese (4) (2)_Cheese_0",
      "primitives": [
        {
          "attributes": {
            "NORMAL": 1,
            "POSITION": 0,
            "TANGENT": 2,
            "TEXCOORD_0": 3
          },
          "indices": 4,
          "material": 0,
          "mode": 4
        }
      ]
    },
    {
      "name": "Cheese (4) (2)_Cull_0",
      "primitives": [
        {
          "attributes": {
            "NORMAL": 6,
            "POSITION": 5,
            "TANGENT": 7
          },
          "indices": 8,
          "material": 1,
          "mode": 4
        }
      ]
    }
  ],
  "nodes": [
    {
      "children": [
        1
      ],
      "name": "RootNode (gltf orientation matrix)",
      "rotation": [
        -0.70710678118654746,
        -0,
        -0,
        0.70710678118654757
      ]
    },
    {
      "children": [
        2
      ],
      "name": "RootNode (model correction matrix)"
    },
    {
      "children": [
        3
      ],
      "matrix": [
        1,
        0,
        0,
        0,
        0,
        0,
        1,
        0,
        0,
        -1,
        0,
        0,
        0,
        0,
        0,
        1
      ],
      "name": "7803ed42f1104b2981e126ff3aed00d8.fbx"
    },
    {
      "children": [
        4
      ],
      "name": "RootNode"
    },
    {
      "children": [
        5,
        6
      ],
      "matrix": [
        0.92849892156562652,
        0,
        -0.38459685784863318,
        0,
        0,
        1,
        0,
        0,
        0.38268344246110453,
        0,
        0.92387952832938047,
        0,
        0,
        3.7950000762939453,
        -9.5,
        1
      ],
      "name": "Cheese (4) (2)"
    },
    {
      "mesh": 0,
      "name": "Cheese (4) (2)_Cheese_0"
    },
    {
      "mesh": 1,
      "name": "Cheese (4) (2)_Cull_0"
    }
  ],
  "samplers": [
    {
      "magFilter": 9729,
      "minFilter": 9987,
      "wrapS": 10497,
      "wrapT": 10497
    }
  ],
  "scene": 0,
  "scenes": [
    {
      "name": "OSG_Scene",
      "nodes": [
        0
      ]
    }
  ],
  "textures": [
    {
      "sampler": 0,
      "source": 0
    }
  ]
}

