<?xml version="1.0" encoding="UTF-8"?>
<svg id="Layer_1" data-name="Layer 1" xmlns="http://www.w3.org/2000/svg" viewBox="0 0 100 100">
  <defs>
    <style>
      .cls-1 {
      fill: #0073ff;
      }

      .cls-1, .cls-2, .cls-3 {
      stroke-width: 0px;
      }

      .cls-2, .cls-3 {
      fill: #fff;
      }

      .cls-3 {
      fill-rule: evenodd;
      }
    </style>
  </defs>
  <circle class="cls-1" cx="50" cy="50" r="50" />
  <g>
    <path class="cls-3"
      d="M50.98,51.64c1.01,1.48,2.96,3.53,4.63,7.15,1.67,3.62,3.82,7.65,5.85,8.27,2.03.62,3.89-.59,2.98-3.83-.91-3.24-1.93-10.12-4.9-15.3-2.97-5.18-11.87-1.16-8.55,3.71Z" />
    <path class="cls-3"
      d="M64.96,88.05c-2.94.04-3.04-2.35-3.26-4.18-.55-4.71-2.81-7.65-3.07-12.16-.26-4.5.11-7.98,1.66-9.3s4.23-.53,4.3,1.58c.05,1.38.03,4.87.15,8.21.19,5.11.52,8.42.81,9.85.31,1.53.18,2.06.46,3.29.43,1.86-.09,2.69-1.06,2.7Z" />
    <path class="cls-3"
      d="M45.29,49.78c-.23,1.7-.15,4.4-1.27,8.06-1.12,3.65-2.16,7.91-1.12,9.62s3.13,2.01,4.55-.9c1.42-2.91,5.07-8.5,6.27-14.1,1.19-5.59-7.68-8.28-8.43-2.69Z" />
    <path class="cls-3"
      d="M47.02,41.49c-1.05,1.94-2.19,2.28-2.73,4.92-.64,3.09.64,4.32.2,7.62-.23,1.71-.57,4.18-.84,5.07,2.14.8,6.61,2.28,6.61,2.28,0,0,2.26-3.66,3.53-6.76.92-2.27,1.24-3.88,1.69-4.77.45-.9,1.34-2.73,1.39-4.67s-8.09-6.92-9.85-3.68Z" />
    <path class="cls-3"
      d="M46.46,44.35c.56,2.22-.09,3.28,1.36,5.7,1.69,2.83,3.57,2.88,5.57,5.73,1.03,1.47,3.26,5.11,3.69,5.98,2.83-.96,6.13-3.7,6.13-3.7,0,0-.91-5.05-2.12-8.32-.89-2.39-1.78-3.85-2.07-4.86s-.89-3.04-2.23-4.57c-1.34-1.53-11.24.33-10.31,4.05Z" />
    <path class="cls-3"
      d="M38.65,31.28c-1.43-1.63,2.14-3.67,4.23-2.42,2.09,1.25,5.47,3.85,6.65,4.89,1.18,1.04.58,3.27-1.19,2.38-2.73-1.37-7.87-2.78-9.69-4.85Z" />
    <path class="cls-3"
      d="M50.32,18.29c2.33,1.19,1.72,3.83.51,5.25-1.21,1.42-3.49,2.62-4.52,3.71-1.03,1.08-5.61,5.85-7.36,4.34-1.76-1.5.78-4.43,2.51-6.28,4.74-5.07,6.86-8.03,8.85-7.02Z" />
    <g>
      <path class="cls-2"
        d="M47.49,7.33c-2.1-1.14-5.26-1.08-6.31,1.78-1.04,2.86-2.78,3.65-4.31,3.4-.3,1.86,1.8,3.26,3.25,3.3,1.39.04,2.36-.39,3.46-2.38,1.04-1.87.56-5.85,3.37-5.09,1.7.46.54-1.02.54-1.02" />
      <path class="cls-2"
        d="M46.95,8.88c-.08,0-.17-.02-.25-.06-.26-.14-.36-.46-.22-.71l.54-1.02c.14-.26.46-.36.71-.22.26.14.36.46.22.71l-.54,1.02c-.09.18-.28.28-.47.28Z" />
      <path class="cls-3"
        d="M48.21,19.44c0-.71.95-2.17.95-2.17,0,0,5.49.93,5.34,1.44-.15.51.3,1.54,1.07,3.92.53,1.66-7.37-3.19-7.37-3.19Z" />
      <path class="cls-3"
        d="M50.09,14.39c-.23,1.43-.66,2.3-.93,2.88-.27.58,1.02.87,2.45,1.26,1.43.4,2.72.91,2.85.35.16-.72.78-2.72.78-2.72,0,0-4.57-5.35-5.15-1.77Z" />
      <path class="cls-3"
        d="M56.35,16.14c.89-.17.71-1.59,1.03-2.8.61-.24.84-.36.61-.73s-.46-.8-.69-1.4c-.22-.61-.39-2.58-1.18-2.93-.79-.36-5.87-3.98-7.3,3.27-.82,4.14,6.28,4.83,7.51,4.59Z" />
      <path class="cls-3"
        d="M56.49,8.59c.52-.75-.37-1.22-1.32-1.95-.62-.48-1.37-.9-2.04-1.09-1.39-.38-3.66-.33-5.25,1.51-1.24,1.43-1.14,3.6-1.12,4.04.09,1.77,1.06,2.84,1.85,3.38.68.46.81.36,1.34.46.57.1,1.05-1.48.89-1.89-.3-.76-.27-1.3.25-1.58.79-.43,1.48.43,1.48.43,0,0,.98-.68,1.24-1.9.29-1.37,2.06-1.32,2.68-1.41Z" />
      <path class="cls-3"
        d="M45.67,25.56c.23-3.05,1.1-4.86,1.77-6.19.11-.21.32-.55.38-.62.26-.32.73-.61.9-.74-.18.32-.4.83-.27,1.11.21.47,1.29,0,2.92,0,1.96,0,3,.24,3.88,2.07,1.33,2.32,2.73,3.29,2.92,5.48.11,1.38-1,3.13-1,3.13,0,0-.11,4.59.01,6.33.2,2.84.96,4.77,1.33,7.13-.45.38-2.82.68-5.84.66-2.83-.01-6.26-.81-6.46-1.48.59-2.06,1.03-2.85,1.03-4.73,0-3.63-1.97-6.62-1.55-12.17Z" />
    </g>
    <path class="cls-3"
      d="M52,20.12c2.53-.64,3.23,1.49,3.25,3.35.01,1.86-.73,4.55-.79,6.04-.06,1.49-1.07,7.76-3.38,7.78-2.31.02-1.99-2.75-1.9-5.28.25-6.94-.2-11.13,2.83-11.89Z" />
    <path class="cls-3"
      d="M50.85,37.29c-2.16,0-1.34-4.03.97-4.77,2.31-.75,6.5-1.57,8.07-1.77,1.57-.2,2.72,1.49,1.01,2.46-1.72.97-7.28,4.08-10.04,4.08Z" />
    <path class="cls-3"
      d="M59.05,31.38c-.02-.67-.15-1.75.3-2.42.45-.67,1.12-1.16,1.68-1.38.56-.22,1.19.19,1.53.9.34.71.48,1.9.48,2.57s-.69,1.4-2.14,2.16c-1.25.66-1.82-.93-1.85-1.83Z" />
    <path class="cls-3"
      d="M29.37,81.5c-.85-2.65.42-4.04,1.9-5.01,1.48-.98,2.95-6.03,6.58-9.43,2.82-2.64,5.73-3.84,7.63-3.46,1.9.39,2.34,3.35.77,4.65s-5.15,4.09-7.81,6.83c-2.05,2.11-4.45,3.75-5.81,5.52-2.42,3.13-2.07,4.63-3.26.91Z" />
    <path class="cls-3"
      d="M31.27,76.49c-.08.68-.1,1.38.26,2.12.55,1.14,1.43,1.56,1.43,1.56,0,0,0,.19-.12.36-.09.14-.39.46-.39.46,0,0-1.91-.03-2.18-1.57-.28-1.54.21-2.34.21-2.34,0,0,.37-.43.79-.59Z" />
    <g>
      <path class="cls-2"
        d="M31.66,88.8c-.44.18-2.15-.03-3.55-3.91-1.56-4.32-2.04-6.4-1.85-6.98.06-.19.72-.26.98-.35,1.11-.61,2.08-.81,2.51-.81.44,0,1.09-.26,1.2-.13.09.1-.61.76-.05,2.15.38.93.81,1.33,1.14,1.57.25.19.46.3.55.4.2.26-.54,1.53-.66,3.26-.12,1.73.42,3.66.31,4.12-.11.45-.29.55-.6.68Z" />
      <path class="cls-2"
        d="M29.75,86.58c.67,1.73,1.61,2.09,2.25,2.01h.02c-.09.1-.21.15-.36.21-.44.18-2.15-.03-3.55-3.91-1.56-4.32-2.04-6.4-1.85-6.98.06-.19.72-.26.98-.35.25.96.14,1.39.81,3.89.27,1.04,1.02,3.4,1.69,5.13Z" />
      <path class="cls-2"
        d="M31.94,84.95s-.03,0-.04,0l-.51-.16c-.07-.02-.11-.09-.08-.16.02-.07.09-.1.16-.08l.51.16c.07.02.11.09.08.16-.02.05-.07.09-.12.09Z" />
      <path class="cls-2"
        d="M31.94,84.32s-.03,0-.04,0l-.58-.21c-.07-.02-.1-.1-.08-.17.02-.07.1-.1.17-.08l.58.21c.07.02.1.1.08.17-.02.05-.07.09-.12.09Z" />
      <path class="cls-2"
        d="M31.99,83.68s-.03,0-.04,0l-.66-.23c-.07-.02-.1-.1-.08-.16.02-.07.1-.1.16-.08l.66.23c.07.02.1.1.08.16-.02.05-.07.09-.12.09Z" />
      <path class="cls-2"
        d="M32.09,83.11s-.03,0-.04,0l-.69-.25c-.07-.02-.1-.1-.08-.17.02-.07.1-.1.17-.08l.69.25c.07.02.1.1.08.17-.02.05-.07.08-.12.08Z" />
    </g>
    <path class="cls-3"
      d="M61.67,83.63c.71.1,1.36.18,2.16-.18,1.22-.54,1.72-1.4,1.72-1.4,0,0,.19.23.28.42.1.22.09.36.09.36,0,0,.37,1.7-1.27,1.94-1.64.24-2.93-.51-2.93-.51,0,0-.09-.26-.04-.65Z" />
    <g>
      <path class="cls-2"
        d="M74.16,83.82c.17.45-.09,2.16-4.11,3.47-4.48,1.45-6.62,1.87-7.21,1.66-.19-.07-.24-.73-.33-1-.59-1.13-.77-2.12-.75-2.56.01-.44-.23-1.1-.1-1.22.1-.09.76.64,2.2.11.97-.35,1.38-.78,1.64-1.11.2-.25.32-.46.43-.54.27-.2,1.55.59,3.32.76,1.77.17,3.76-.32,4.23-.2.46.12.56.31.68.62Z" />
      <path class="cls-2"
        d="M71.82,85.69c1.79-.63,2.19-1.57,2.13-2.21v-.02c.1.1.15.22.21.37.17.45-.09,2.16-4.11,3.47-4.48,1.45-6.62,1.87-7.21,1.66-.19-.07-.24-.73-.33-1,.99-.22,1.43-.1,4.01-.7,1.07-.25,3.51-.93,5.31-1.56Z" />
      <path class="cls-2"
        d="M69.9,84.06s-.03,0-.04,0c-.07-.02-.1-.1-.08-.16l.18-.51c.02-.07.1-.1.16-.08.07.02.1.1.08.16l-.18.51c-.02.05-.07.08-.12.08Z" />
      <path class="cls-2"
        d="M69.21,84.11s-.03,0-.05,0c-.06-.03-.1-.1-.07-.16l.23-.58c.03-.06.1-.1.16-.07.06.03.1.1.07.16l-.23.58s-.07.08-.12.08Z" />
      <path class="cls-2"
        d="M68.54,84.12s-.03,0-.05,0c-.06-.02-.1-.1-.07-.16l.25-.66c.02-.06.1-.1.16-.07.06.02.1.1.07.16l-.25.66s-.07.08-.12.08Z" />
      <path class="cls-2"
        d="M67.92,84.03s-.03,0-.05,0c-.06-.03-.09-.1-.07-.16l.28-.68c.03-.06.1-.09.16-.07.06.03.09.1.07.16l-.28.68s-.07.08-.12.08Z" />
    </g>
    <path class="cls-2"
      d="M52.36,12.7c0,.19-.15.34-.34.34s-.34-.15-.34-.34.15-.34.34-.34.34.15.34.34Z" />
    <path class="cls-2"
      d="M52.68,13.44s-.06-.01-.09-.04l-.65-.61c-.05-.05-.06-.13,0-.19.05-.05.13-.06.19,0l.65.61c.05.05.06.13,0,.19-.03.03-.06.04-.1.04Z" />
    <path class="cls-2"
      d="M59.84,33.8s0-.16,0-.21c.11-1.65-.82-2.18-1.12-2.35-.03-.02-.06-.03-.08-.05-.08-.05-.27-.11-.29-.2-.01-.08.49-.46.64-.36.01,0,.03.02.05.03,1.01.57,1.5,1.5,1.47,2.76,0,.02-.02.14-.11.2-.19.14-.53.25-.56.17Z" />
    <rect class="cls-2" x="59.44" y="31.51" width=".93" height="1.12" rx=".22" ry=".22"
      transform="translate(-7.96 28.83) rotate(-25.43)" />
  </g>
</svg>